<svg id="Layer_1" data-name="Layer 1" xmlns="http://www.w3.org/2000/svg" viewBox="0 0 100 100"><defs><style>.cls-1,.cls-2{fill:none;stroke:#000;stroke-miterlimit:10;stroke-width:5px;}.cls-2{stroke-linecap:round;}</style></defs><path class="cls-1" d="M24.57,32.59H75.43a0,0,0,0,1,0,0V83.84a4,4,0,0,1-4,4H28.55a4,4,0,0,1-4-4V32.59A0,0,0,0,1,24.57,32.59Z"/><path class="cls-1" d="M26.4,21.14H73.6a5,5,0,0,1,5,5v5.2a1.24,1.24,0,0,1-1.24,1.24H22.64a1.24,1.24,0,0,1-1.24-1.24v-5.2a5,5,0,0,1,5-5Z"/><path class="cls-1" d="M44.24,12.19H55.76a3.67,3.67,0,0,1,3.67,3.67v5.28a0,0,0,0,1,0,0H40.56a0,0,0,0,1,0,0V15.86A3.67,3.67,0,0,1,44.24,12.19Z"/><line class="cls-2" x1="37.59" y1="45.49" x2="37.59" y2="74.49"/><line class="cls-2" x1="62.41" y1="45.49" x2="62.41" y2="74.49"/><line class="cls-2" x1="50" y1="45.49" x2="50" y2="74.49"/></svg>