<svg id="Layer_1" data-name="Layer 1" xmlns="http://www.w3.org/2000/svg" viewBox="0 0 100 100"><defs><style>.cls-1{fill:#f7abb8;}.cls-1,.cls-2,.cls-3{stroke:#000;stroke-miterlimit:10;stroke-width:5px;}.cls-2,.cls-3{fill:none;}.cls-3{stroke-linecap:round;}</style></defs><path class="cls-1" d="M24.57,32.59H75.43a0,0,0,0,1,0,0V83.84a4,4,0,0,1-4,4H28.55a4,4,0,0,1-4-4V32.59A0,0,0,0,1,24.57,32.59Z"/><path class="cls-1" d="M23.2,13.8h47.2a5,5,0,0,1,5,5V24a1.24,1.24,0,0,1-1.24,1.24H19.44A1.24,1.24,0,0,1,18.2,24V18.8a5,5,0,0,1,5-5Z" transform="translate(-3.89 20.85) rotate(-24.14)"/><path class="cls-2" d="M36.87,5.74H48.4a3.67,3.67,0,0,1,3.67,3.67v5.28a0,0,0,0,1,0,0H33.2a0,0,0,0,1,0,0V9.41A3.67,3.67,0,0,1,36.87,5.74Z" transform="translate(-0.45 18.33) rotate(-24.14)"/><line class="cls-3" x1="37.59" y1="45.49" x2="37.59" y2="74.49"/><line class="cls-3" x1="62.41" y1="45.49" x2="62.41" y2="74.49"/><line class="cls-3" x1="50" y1="45.49" x2="50" y2="74.49"/></svg>